<?xml version="1.0" standalone="no"?>
<!DOCTYPE svg PUBLIC "-//W3C//DTD SVG 20010904//EN"
 "http://www.w3.org/TR/2001/REC-SVG-20010904/DTD/svg10.dtd">
<svg version="1.0" xmlns="http://www.w3.org/2000/svg"
 width="512.000000pt" height="512.000000pt" viewBox="0 0 512.000000 512.000000"
 preserveAspectRatio="xMidYMid meet">
<metadata>
Created by potrace 1.11, written by Peter Selinger 2001-2013
</metadata>
<g transform="translate(0.000000,512.000000) scale(0.100000,-0.100000)"
fill="#000000" stroke="none">
<path d="M2460 4857 c-3 -2 -30 -7 -60 -10 -95 -10 -210 -47 -335 -108 -350
-172 -669 -546 -819 -959 -134 -372 -133 -702 4 -1012 80 -182 222 -367 374
-488 31 -25 56 -48 56 -52 0 -8 -128 -38 -205 -46 -79 -9 -215 -8 -290 2 -169
21 -309 90 -438 215 -126 122 -190 246 -222 431 -28 163 -58 229 -123 273 -36
24 -54 29 -106 30 -111 1 -203 -64 -260 -183 -30 -62 -31 -71 -30 -185 0 -86
5 -137 18 -180 22 -72 75 -204 91 -225 6 -8 21 -35 35 -60 177 -333 468 -522
875 -568 173 -19 435 -5 620 35 39 8 78 16 88 18 110 23 333 116 449 186 21
13 41 20 44 16 9 -8 -23 -126 -57 -210 -105 -261 -290 -405 -612 -478 -174
-39 -262 -31 -472 41 -151 52 -215 60 -277 32 -103 -45 -149 -181 -107 -311
53 -161 248 -279 509 -308 127 -14 421 -6 451 12 5 4 21 9 36 11 96 18 278
113 383 202 217 184 402 471 505 785 l22 68 25 -38 c29 -45 64 -129 83 -202
15 -60 18 -222 4 -296 -5 -27 -12 -62 -14 -77 -3 -15 -9 -38 -15 -52 -5 -15
-8 -26 -6 -26 8 0 -53 -152 -79 -197 -15 -26 -90 -109 -166 -183 -180 -176
-207 -233 -159 -338 40 -89 125 -143 236 -150 220 -14 432 164 608 513 31 61
56 117 56 125 0 9 4 20 8 25 5 6 14 35 21 65 43 200 32 403 -33 588 -8 23 -13
42 -10 42 2 0 50 -20 107 -44 134 -57 209 -70 350 -62 116 6 126 7 215 25 38
8 60 8 73 0 60 -32 172 8 190 69 2 7 38 27 79 45 309 135 593 369 748 617 79
125 150 314 176 465 16 93 15 384 -2 455 -6 25 -13 59 -16 75 -3 17 -10 44
-15 61 -6 21 -5 38 5 55 17 30 18 83 2 112 -13 25 -58 67 -73 67 -5 0 -33 49
-62 108 -29 59 -69 132 -89 162 -26 38 -38 67 -39 95 -3 66 -4 69 -29 97 -24
29 -91 58 -114 50 -7 -2 -39 7 -70 21 -74 34 -149 45 -240 37 -85 -8 -117 -27
-146 -84 -46 -94 -30 -156 68 -261 153 -162 307 -477 336 -688 27 -187 -40
-417 -178 -612 -156 -221 -415 -373 -686 -403 -93 -10 -217 -7 -261 8 -89 28
-183 80 -146 80 18 0 168 118 243 191 118 116 210 249 275 399 75 171 98 284
98 485 0 166 -3 191 -50 392 -12 51 -70 202 -107 282 -222 466 -588 797 -999
901 -78 20 -336 40 -349 27z"/>
</g>
</svg>
